<svg width="24" height="24" viewBox="0 0 24 24" fill="none" xmlns="http://www.w3.org/2000/svg">
<rect width="24" height="24" fill="none"/>
<path fill-rule="evenodd" clip-rule="evenodd" d="M21.2617 2.94625L21.9711 5.63807C21.9994 5.74729 21.9836 5.86401 21.9244 5.96073C21.866 6.0574 21.7701 6.12579 21.6601 6.15162L6.94315 9.49536H21.5676C21.7977 9.49536 21.9844 9.68207 21.9844 9.91219V13.2386L21.9845 13.2468L21.9844 13.2549V19.9159C21.9844 21.0647 21.0499 22 19.9003 22H4.89473C3.74516 22 2.81063 21.0647 2.81063 19.9159V13.2468V10.5906L2.03867 7.53877C1.95532 7.20865 2.00784 6.86852 2.1854 6.5801C2.36297 6.29163 2.64225 6.09073 2.97237 6.01571L19.767 2.03091C20.4297 1.88085 21.0983 2.29182 21.2617 2.94625ZM3.6443 13.6636V19.9159C3.6443 20.6053 4.20533 21.1663 4.89477 21.1663H19.9003C20.5898 21.1663 21.1508 20.6053 21.1508 19.9159V13.6636H17.4003L17.3994 13.6636L17.3985 13.6636H13.2321L13.2312 13.6636L13.2303 13.6636H9.06388L9.06299 13.6636L9.06211 13.6636H4.89566L4.89477 13.6636L4.89388 13.6636H3.6443ZM4.63631 12.8299H3.6443V10.5591C3.64477 10.5478 3.64477 10.5364 3.6443 10.525V10.329H5.88679L4.63631 12.8299ZM5.56961 12.8299H8.80454L10.055 10.329H6.82009L5.56961 12.8299ZM9.73702 12.8299H12.9727L14.2232 10.329H10.9875L9.73702 12.8299ZM13.9052 12.8299H17.141L18.3914 10.329H15.1557L13.9052 12.8299ZM18.0734 12.8299H21.1508V10.329H19.3239L18.0734 12.8299ZM2.84651 7.3362L3.38171 9.44948L6.13488 8.82379L3.95124 6.63952L3.16162 6.82683C3.04826 6.85352 2.95491 6.92022 2.8957 7.01608C2.83732 7.11279 2.819 7.22616 2.84651 7.3362ZM10.2122 7.89717L7.09593 8.60538L4.90405 6.4135L7.99419 5.68047L10.2122 7.89717ZM11.1735 7.6787L14.2885 6.97077L12.0409 4.72052L8.94725 5.45438L11.1735 7.6787ZM18.3613 6.04518L15.2487 6.75256L12.9933 4.49459L16.0804 3.76229L18.3613 6.04518ZM19.3216 5.82695L17.0329 3.53633L19.9562 2.84289C19.9862 2.83539 20.017 2.83206 20.047 2.83206C20.2338 2.83206 20.4063 2.96043 20.4539 3.153L21.0549 5.43303L19.3216 5.82695Z" fill="white"/>
</svg>
