<svg width="24" height="24" viewBox="0 0 24 24" fill="none" xmlns="http://www.w3.org/2000/svg">
<rect width="24" height="24" fill="#none"/>
<path fill-rule="evenodd" clip-rule="evenodd" d="M13.4146 5.51564H20.2422C21.2115 5.51564 22 6.30419 22 7.27345V19.0703C22 20.0396 21.2114 20.8281 20.2422 20.8281H18.4844V21.4141C18.4844 21.7377 18.222 22 17.8984 22C17.5748 22 17.3125 21.7377 17.3125 21.4141V20.8281H6.6875V21.4141C6.6875 21.7377 6.42515 22 6.10156 22C5.77797 22 5.51562 21.7377 5.51562 21.4141V20.8281H3.75781C2.78855 20.8281 2 20.0396 2 19.0703V7.27345C2 6.30419 2.78855 5.51564 3.75781 5.51564H10.5854L8.07007 3.00025C7.84124 2.77143 7.84124 2.40045 8.07007 2.17162C8.2989 1.94279 8.66992 1.94279 8.8987 2.17162L12 5.27295L15.1013 2.17166C15.3301 1.94283 15.7011 1.94283 15.9299 2.17166C16.1587 2.40049 16.1587 2.77146 15.9299 3.00029L13.4146 5.51564ZM20.2422 19.6563C20.5653 19.6563 20.8281 19.3934 20.8281 19.0703V7.27345C20.8281 6.95037 20.5653 6.68751 20.2422 6.68751H3.75781C3.43473 6.68751 3.17187 6.95037 3.17187 7.27345V19.0703C3.17187 19.3934 3.43473 19.6563 3.75781 19.6563H20.2422ZM4.92968 7.85939H16.7265C17.0501 7.85939 17.3125 8.12173 17.3125 8.44533V17.8984C17.3125 18.222 17.0501 18.4844 16.7265 18.4844H4.92968C4.60609 18.4844 4.34375 18.222 4.34375 17.8984V8.44533C4.34375 8.12173 4.60609 7.85939 4.92968 7.85939ZM5.51562 17.3125H16.1406V9.03126H5.51562V17.3125ZM19.0703 10.2031C19.3939 10.2031 19.6562 9.9408 19.6562 9.6172C19.6562 9.2936 19.3939 9.03126 19.0703 9.03126C18.7467 9.03126 18.4844 9.2936 18.4844 9.6172C18.4844 9.9408 18.7467 10.2031 19.0703 10.2031ZM19.6562 11.9609C19.6562 12.2846 19.3939 12.5469 19.0703 12.5469C18.7467 12.5469 18.4844 12.2846 18.4844 11.9609C18.4844 11.6373 18.7467 11.375 19.0703 11.375C19.3939 11.375 19.6562 11.6373 19.6562 11.9609ZM18.4844 14.3047C18.4844 13.9811 18.7467 13.7188 19.0703 13.7188C19.3939 13.7188 19.6562 13.9811 19.6562 14.3047V16.7266C19.6562 17.0502 19.3939 17.3125 19.0703 17.3125C18.7467 17.3125 18.4844 17.0502 18.4844 16.7266V14.3047Z" fill="white"/>
</svg>
